<svg width="9" height="15" viewBox="0 0 9 15" fill="none" xmlns="http://www.w3.org/2000/svg">
<path d="M0.799316 14.0625C0.799535 13.8139 0.898451 13.5756 1.07432 13.4L5.86932 8.60495C6.01445 8.45985 6.12958 8.28759 6.20813 8.09799C6.28668 7.90839 6.32711 7.70518 6.32711 7.49995C6.32711 7.29473 6.28668 7.09151 6.20813 6.90191C6.12958 6.71231 6.01445 6.54005 5.86932 6.39495L1.08057 1.60307C0.909793 1.42626 0.815298 1.18945 0.817434 0.943636C0.81957 0.697827 0.918166 0.46269 1.09199 0.28887C1.26581 0.11505 1.50094 0.0164537 1.74675 0.0143177C1.99256 0.0121816 2.22938 0.106676 2.40619 0.27745L7.19494 5.06558C7.83884 5.71074 8.20047 6.58501 8.20047 7.49651C8.20047 8.40802 7.83884 9.28229 7.19494 9.92745L2.39994 14.7225C2.26902 14.8535 2.10222 14.9428 1.9206 14.9791C1.73897 15.0154 1.55067 14.9971 1.37943 14.9265C1.2082 14.8559 1.06172 14.7361 0.958478 14.5823C0.855233 14.4286 0.799849 14.2477 0.799316 14.0625Z" fill="#0340BE"/>
</svg>
