<svg width="22" height="24" viewBox="0 0 22 24" fill="none" xmlns="http://www.w3.org/2000/svg">
<path d="M1.84893 23.55C2.39498 23.7834 2.99868 23.8467 3.58128 23.7319C4.16389 23.617 4.69834 23.3292 5.11493 22.906L10.9999 17.053L16.8849 22.906C17.1593 23.1844 17.4862 23.4056 17.8467 23.5568C18.2071 23.7081 18.594 23.7863 18.9849 23.787C19.3867 23.7858 19.7843 23.7053 20.1549 23.55C20.7054 23.3272 21.176 22.9436 21.5051 22.4493C21.8343 21.9549 22.0067 21.3728 21.9999 20.779V5C21.9983 3.67441 21.471 2.40356 20.5337 1.46622C19.5964 0.528882 18.3255 0.00158786 16.9999 0L4.99993 0C3.67434 0.00158786 2.40349 0.528882 1.46615 1.46622C0.528812 2.40356 0.00151786 3.67441 -6.99945e-05 5V20.779C-0.00652317 21.3733 0.166506 21.9557 0.496394 22.4501C0.826281 22.9445 1.29767 23.3278 1.84893 23.55Z" fill="#737B8B"/>
</svg>
