<svg width="22" height="24" viewBox="0 0 22 24" fill="none" xmlns="http://www.w3.org/2000/svg">
<path fill-rule="evenodd" clip-rule="evenodd" d="M15.3999 13.1333H12.021C11.4015 13.1333 10.8947 13.6433 10.8947 14.2666V17.6666C10.8947 18.29 11.4015 18.8 12.021 18.8H15.3999C16.0194 18.8 16.5262 18.29 16.5262 17.6666V14.2666C16.5262 13.6433 16.0194 13.1333 15.3999 13.1333ZM15.3999 1.79996V2.93329H6.38939V1.79996C6.38939 1.17663 5.88255 0.666626 5.26308 0.666626C4.6436 0.666626 4.13676 1.17663 4.13676 1.79996V2.93329H3.01044C1.76023 2.93329 0.769076 3.95329 0.769076 5.19996L0.757812 21.0666C0.757812 22.3133 1.76023 23.3333 3.01044 23.3333H18.7789C20.0178 23.3333 21.0315 22.3133 21.0315 21.0666V5.19996C21.0315 3.95329 20.0178 2.93329 18.7789 2.93329H17.6525V1.79996C17.6525 1.17663 17.1457 0.666626 16.5262 0.666626C15.9068 0.666626 15.3999 1.17663 15.3999 1.79996ZM17.6525 21.0666H4.13676C3.51729 21.0666 3.01044 20.5566 3.01044 19.9333V8.59996H18.7789V19.9333C18.7789 20.5566 18.272 21.0666 17.6525 21.0666Z" fill="#4EBBC2"/>
</svg>
