<svg width="17" height="23" viewBox="0 0 17 23" fill="none" xmlns="http://www.w3.org/2000/svg">
<path fill-rule="evenodd" clip-rule="evenodd" d="M8.64988 0.666626C4.35418 0.666626 0.879883 4.21396 0.879883 8.59996C0.879883 13.326 5.78608 19.8426 7.80628 22.3246C8.25028 22.8686 9.06058 22.8686 9.50458 22.3246C11.5137 19.8426 16.4199 13.326 16.4199 8.59996C16.4199 4.21396 12.9456 0.666626 8.64988 0.666626ZM8.64988 11.4333C7.11808 11.4333 5.87488 10.164 5.87488 8.59996C5.87488 7.03596 7.11808 5.76663 8.64988 5.76663C10.1817 5.76663 11.4249 7.03596 11.4249 8.59996C11.4249 10.164 10.1817 11.4333 8.64988 11.4333Z" fill="#4EBBC2"/>
</svg>
