<svg width="22" height="22" viewBox="0 0 22 22" fill="none" xmlns="http://www.w3.org/2000/svg">
<g clip-path="url(#clip0_8_1216)">
<path d="M1.83335 16.0416H4.125C5.13752 16.0416 5.95835 16.8624 5.95835 17.875V20.1666C5.95835 21.1792 5.13752 22 4.125 22H1.83335C0.820832 22 0 21.1792 0 20.1666V17.875C0 16.8625 0.820832 16.0416 1.83335 16.0416Z" fill="#4EBBC2"/>
<path d="M21.1916 16.3551C20.8891 16.1503 20.5321 16.041 20.1667 16.0416H17.8751C16.8626 16.0416 16.0417 16.8624 16.0417 17.875V20.1666C16.0417 21.1792 16.8626 22 17.8751 22H20.1667C21.1793 22 22.0001 21.1792 22.0001 20.1666V17.875C22 17.2655 21.697 16.6959 21.1916 16.3551Z" fill="#4EBBC2"/>
<path d="M1.83335 8.02087H4.125C5.13752 8.02087 5.95835 8.84171 5.95835 9.85423V12.1459C5.95835 13.1584 5.13752 13.9792 4.125 13.9792H1.83335C0.820832 13.9792 0 13.1584 0 12.1459V9.85423C0 8.84166 0.820832 8.02087 1.83335 8.02087Z" fill="#4EBBC2"/>
<path d="M21.1916 8.33425C20.8891 8.12938 20.5321 8.02015 20.1667 8.02075H17.8751C16.8626 8.02075 16.0417 8.84159 16.0417 9.85411V12.1458C16.0417 13.1583 16.8626 13.9791 17.8751 13.9791H20.1667C21.1793 13.9791 22.0001 13.1583 22.0001 12.1458V9.85411C22 9.24455 21.697 8.67495 21.1916 8.33425Z" fill="#4EBBC2"/>
<path d="M1.83335 0H4.125C5.13752 0 5.95835 0.820832 5.95835 1.83335V4.125C5.95835 5.13752 5.13752 5.95835 4.125 5.95835H1.83335C0.820832 5.95835 0 5.13752 0 4.125V1.83335C0 0.820832 0.820832 0 1.83335 0Z" fill="#4EBBC2"/>
<path d="M13.1706 16.3551C12.8682 16.1503 12.5111 16.041 12.1458 16.0416H9.8541C8.84159 16.0416 8.02075 16.8624 8.02075 17.875V20.1666C8.02075 21.1791 8.84159 22 9.8541 22H12.1458C13.1583 22 13.9791 21.1792 13.9791 20.1666V17.875C13.979 17.2655 13.676 16.6959 13.1706 16.3551Z" fill="#4EBBC2"/>
<path d="M13.1706 8.33425C12.8682 8.12938 12.5111 8.02015 12.1458 8.02075H9.8541C8.84159 8.02075 8.02075 8.84159 8.02075 9.85411V12.1458C8.02075 13.1583 8.84159 13.9791 9.8541 13.9791H12.1458C13.1583 13.9791 13.9791 13.1583 13.9791 12.1458V9.85411C13.979 9.24455 13.676 8.67495 13.1706 8.33425Z" fill="#4EBBC2"/>
<path d="M13.1706 0.313503C12.8682 0.108627 12.5111 -0.000599091 12.1458 2.4715e-06H9.8541C8.84159 2.4715e-06 8.02075 0.820835 8.02075 1.83335V4.125C8.02075 5.13752 8.84159 5.95835 9.8541 5.95835H12.1458C13.1583 5.95835 13.9791 5.13752 13.9791 4.125V1.83335C13.979 1.22384 13.676 0.654202 13.1706 0.313503Z" fill="#4EBBC2"/>
<path d="M21.6866 0.8085C21.3459 0.303102 20.7763 8.59375e-05 20.1667 0H17.8751C16.8626 0 16.0417 0.820832 16.0417 1.83335V4.125C16.0417 5.13752 16.8626 5.95835 17.8751 5.95835H20.1667C21.1793 5.95835 22.0001 5.13752 22.0001 4.125V1.83335C22.0007 1.46803 21.8915 1.11096 21.6866 0.8085Z" fill="#4EBBC2"/>
</g>
<defs>
<clipPath id="clip0_8_1216">
<rect width="22" height="22" fill="white"/>
</clipPath>
</defs>
</svg>
