<svg width="14" height="22" viewBox="0 0 14 22" fill="none" xmlns="http://www.w3.org/2000/svg">
<path d="M5.22916 18.3333C4.48351 18.3326 3.7686 18.0361 3.24135 17.5088C2.71409 16.9816 2.41756 16.2667 2.41683 15.521C2.41683 15.2779 2.32025 15.0447 2.14834 14.8728C1.97644 14.7009 1.74328 14.6043 1.50016 14.6043C1.25705 14.6043 1.02389 14.7009 0.851982 14.8728C0.680073 15.0447 0.583496 15.2779 0.583496 15.521V15.5833C0.583496 15.6007 0.583496 15.6163 0.583496 15.6338C0.614088 16.8458 1.11687 17.998 1.98468 18.8448C2.85249 19.6915 4.0167 20.1659 5.22916 20.1667H6.0835V21.0833C6.0835 21.3264 6.18007 21.5596 6.35198 21.7315C6.52389 21.9034 6.75705 22 7.00016 22C7.24328 22 7.47644 21.9034 7.64834 21.7315C7.82025 21.5596 7.91683 21.3264 7.91683 21.0833V20.1667H8.77116C9.87362 20.1655 10.9397 19.7723 11.7789 19.0573C12.6181 18.3424 13.1757 17.3523 13.3521 16.264C13.5284 15.1758 13.312 14.0603 12.7414 13.1169C12.1709 12.1735 11.2835 11.4638 10.2378 11.1146L7.91683 10.34V3.66667H8.77116C9.51682 3.66739 10.2317 3.96393 10.759 4.49118C11.2862 5.01844 11.5828 5.73335 11.5835 6.479C11.5835 6.72212 11.6801 6.95527 11.852 7.12718C12.0239 7.29909 12.257 7.39567 12.5002 7.39567C12.7433 7.39567 12.9764 7.29909 13.1483 7.12718C13.3203 6.95527 13.4168 6.72212 13.4168 6.479V6.41667C13.4168 6.39925 13.4168 6.38367 13.4168 6.36625C13.3862 5.15417 12.8835 4.00197 12.0156 3.15522C11.1478 2.30847 9.98363 1.83414 8.77116 1.83333H7.91683V0.916667C7.91683 0.673552 7.82025 0.440394 7.64834 0.268485C7.47644 0.0965771 7.24328 0 7.00016 0C6.75705 0 6.52389 0.0965771 6.35198 0.268485C6.18007 0.440394 6.0835 0.673552 6.0835 0.916667V1.83333H5.22916C4.1267 1.83451 3.0606 2.22771 2.22139 2.94266C1.38219 3.65761 0.824588 4.64771 0.648261 5.73597C0.471935 6.82424 0.688373 7.93974 1.25889 8.8831C1.82941 9.82646 2.71681 10.5362 3.7625 10.8854L6.0835 11.66V18.3333H5.22916ZM7.91683 12.2714L9.6585 12.8526C10.2922 13.0635 10.8301 13.493 11.176 14.0642C11.5219 14.6355 11.6533 15.3112 11.5466 15.9705C11.4398 16.6297 11.102 17.2295 10.5935 17.6624C10.085 18.0953 9.43899 18.3331 8.77116 18.3333H7.91683V12.2714ZM4.34183 9.14742C3.70817 8.93652 3.17025 8.50701 2.82432 7.93575C2.47839 7.3645 2.34704 6.68878 2.45377 6.02954C2.5605 5.37029 2.89835 4.77054 3.40686 4.33762C3.91536 3.90469 4.56133 3.66686 5.22916 3.66667H6.0835V9.72858L4.34183 9.14742Z" fill="#4EBBC2"/>
</svg>
