<svg width="22" height="22" viewBox="0 0 22 22" fill="none" xmlns="http://www.w3.org/2000/svg">
<g clip-path="url(#clip0_8_1211)">
<path d="M1.21635 11.367L4.47968 13.7503L3.24035 17.5884C3.04007 18.1836 3.03753 18.8277 3.23312 19.4245C3.4287 20.0214 3.81193 20.539 4.32568 20.9003C4.83063 21.2732 5.44254 21.4729 6.07024 21.4698C6.69794 21.4666 7.30782 21.2608 7.80902 20.8829L10.9999 18.5344L14.1918 20.8801C14.6958 21.2509 15.3044 21.4522 15.9301 21.4553C16.5558 21.4583 17.1663 21.2629 17.674 20.8971C18.1816 20.5313 18.5601 20.0139 18.7552 19.4194C18.9502 18.8249 18.9518 18.1838 18.7595 17.5884L17.5202 13.7503L20.7835 11.367C21.2869 10.9989 21.6611 10.4812 21.8527 9.88781C22.0442 9.2944 22.0434 8.65562 21.8502 8.06272C21.6571 7.46982 21.2815 6.95313 20.7771 6.58645C20.2728 6.21976 19.6654 6.02184 19.0419 6.02095H15.0333L13.8168 2.22962C13.6256 1.63283 13.2497 1.11221 12.7434 0.742844C12.2371 0.373474 11.6266 0.174438 10.9999 0.174438C10.3732 0.174438 9.76274 0.373474 9.25646 0.742844C8.75019 1.11221 8.3743 1.63283 8.18302 2.22962L6.9666 6.02095H2.96168C2.33811 6.02184 1.73077 6.21976 1.22641 6.58645C0.722053 6.95313 0.34647 7.46982 0.153311 8.06272C-0.0398488 8.65562 -0.0407037 9.2944 0.150868 9.88781C0.34244 10.4812 0.716638 10.9989 1.22002 11.367H1.21635Z" fill="#4EBBC2"/>
</g>
<defs>
<clipPath id="clip0_8_1211">
<rect width="22" height="22" fill="white"/>
</clipPath>
</defs>
</svg>
