<svg width="22" height="22" viewBox="0 0 22 22" fill="none" xmlns="http://www.w3.org/2000/svg">
<g clip-path="url(#clip0_7_1204)">
<path d="M0 17.4167C0.00145554 18.6319 0.484808 19.7968 1.34403 20.656C2.20326 21.5153 3.3682 21.9986 4.58333 22.0001H17.4167C18.6318 21.9986 19.7967 21.5153 20.656 20.656C21.5152 19.7968 21.9985 18.6319 22 17.4167V9.16675H0V17.4167ZM15.5833 13.2917C15.8553 13.2917 16.1211 13.3724 16.3472 13.5235C16.5734 13.6746 16.7496 13.8893 16.8537 14.1406C16.9577 14.3918 16.985 14.6683 16.9319 14.935C16.8789 15.2017 16.7479 15.4467 16.5556 15.639C16.3633 15.8313 16.1183 15.9623 15.8516 16.0153C15.5849 16.0684 15.3084 16.0412 15.0571 15.9371C14.8059 15.833 14.5911 15.6568 14.4401 15.4307C14.289 15.2045 14.2083 14.9387 14.2083 14.6667C14.2083 14.3021 14.3532 13.9523 14.6111 13.6945C14.8689 13.4366 15.2187 13.2917 15.5833 13.2917ZM11 13.2917C11.2719 13.2917 11.5378 13.3724 11.7639 13.5235C11.99 13.6746 12.1663 13.8893 12.2703 14.1406C12.3744 14.3918 12.4016 14.6683 12.3486 14.935C12.2955 15.2017 12.1646 15.4467 11.9723 15.639C11.78 15.8313 11.535 15.9623 11.2682 16.0153C11.0015 16.0684 10.7251 16.0412 10.4738 15.9371C10.2226 15.833 10.0078 15.6568 9.85673 15.4307C9.70564 15.2045 9.625 14.9387 9.625 14.6667C9.625 14.3021 9.76987 13.9523 10.0277 13.6945C10.2856 13.4366 10.6353 13.2917 11 13.2917ZM6.41667 13.2917C6.68862 13.2917 6.95446 13.3724 7.18058 13.5235C7.40669 13.6746 7.58293 13.8893 7.687 14.1406C7.79107 14.3918 7.8183 14.6683 7.76525 14.935C7.71219 15.2017 7.58124 15.4467 7.38894 15.639C7.19664 15.8313 6.95164 15.9623 6.68492 16.0153C6.41819 16.0684 6.14173 16.0412 5.89048 15.9371C5.63923 15.833 5.42448 15.6568 5.2734 15.4307C5.12231 15.2045 5.04167 14.9387 5.04167 14.6667C5.04167 14.3021 5.18653 13.9523 5.44439 13.6945C5.70226 13.4366 6.05199 13.2917 6.41667 13.2917Z" fill="#4EBBC2"/>
<path d="M17.4167 1.83333H16.5V0.916667C16.5 0.673552 16.4034 0.440394 16.2315 0.268485C16.0596 0.0965771 15.8264 0 15.5833 0C15.3402 0 15.1071 0.0965771 14.9352 0.268485C14.7632 0.440394 14.6667 0.673552 14.6667 0.916667V1.83333H7.33333V0.916667C7.33333 0.673552 7.23676 0.440394 7.06485 0.268485C6.89294 0.0965771 6.65978 0 6.41667 0C6.17355 0 5.94039 0.0965771 5.76849 0.268485C5.59658 0.440394 5.5 0.673552 5.5 0.916667V1.83333H4.58333C3.3682 1.83479 2.20326 2.31814 1.34403 3.17737C0.484808 4.03659 0.00145554 5.20154 0 6.41667L0 7.33333H22V6.41667C21.9985 5.20154 21.5152 4.03659 20.656 3.17737C19.7967 2.31814 18.6318 1.83479 17.4167 1.83333Z" fill="#4EBBC2"/>
</g>
<defs>
<clipPath id="clip0_7_1204">
<rect width="22" height="22" fill="white"/>
</clipPath>
</defs>
</svg>
