<svg width="24" height="24" viewBox="0 0 24 24" fill="none" xmlns="http://www.w3.org/2000/svg">
<g clip-path="url(#clip0_39_3293)">
<path d="M1.00111 4.75073H3.73683C4.27678 6.73737 6.32497 7.91016 8.31161 7.37022C9.58756 7.02342 10.5843 6.02668 10.9311 4.75073H22.9989C23.5511 4.75073 23.9988 4.30307 23.9988 3.75084C23.9988 3.19862 23.5511 2.75096 22.9989 2.75096H10.9311C10.3912 0.764267 8.34297 -0.408523 6.35632 0.131424C5.08037 0.478217 4.08363 1.47496 3.73683 2.75091H1.00111C0.448879 2.75091 0.0012207 3.19857 0.0012207 3.7508C0.0012207 4.30302 0.448879 4.75073 1.00111 4.75073Z" fill="#4EBBC2"/>
<path d="M22.9989 11.0009H20.2632C19.7243 9.01456 17.6772 7.84111 15.6909 8.37993C14.4139 8.72635 13.4163 9.72389 13.0699 11.0009H1.00111C0.448879 11.0009 0.0012207 11.4486 0.0012207 12.0008C0.0012207 12.553 0.448879 13.0007 1.00111 13.0007H13.0699C13.6088 14.9871 15.6558 16.1605 17.6422 15.6217C18.9192 15.2753 19.9168 14.2777 20.2632 13.0007H22.9989C23.5511 13.0007 23.9988 12.553 23.9988 12.0008C23.9988 11.4486 23.5511 11.0009 22.9989 11.0009Z" fill="#4EBBC2"/>
<path d="M22.9989 19.249H10.9311C10.3912 17.2623 8.34297 16.0895 6.35632 16.6295C5.08037 16.9763 4.08363 17.973 3.73683 19.249H1.00111C0.448879 19.249 0.0012207 19.6966 0.0012207 20.2488C0.0012207 20.8011 0.448879 21.2487 1.00111 21.2487H3.73683C4.27678 23.2354 6.32497 24.4081 8.31161 23.8682C9.58756 23.5214 10.5843 22.5247 10.9311 21.2487H22.9989C23.5511 21.2487 23.9988 20.8011 23.9988 20.2488C23.9988 19.6966 23.5511 19.249 22.9989 19.249Z" fill="#4EBBC2"/>
</g>
<defs>
<clipPath id="clip0_39_3293">
<rect width="24" height="24" fill="white"/>
</clipPath>
</defs>
</svg>
